<svg version="1.2" xmlns="http://www.w3.org/2000/svg" viewBox="0 0 400 300" width="400" height="300">
	<title>development-team-svg</title>
	<defs>
		<linearGradient id="g1" x1="89.3" y1="129.8" x2="71.5" y2="151.9" gradientUnits="userSpaceOnUse">
			<stop offset="0" stop-color="#75cceb"/>
			<stop offset="1" stop-color="#75cceb"/>
		</linearGradient>
		<linearGradient id="g2" x1="139.7" y1="193.7" x2="134.4" y2="202.7" gradientUnits="userSpaceOnUse">
			<stop offset="0" stop-color="#75cceb"/>
			<stop offset="1" stop-color="#75cceb"/>
		</linearGradient>
		<linearGradient id="g3" x1="241" y1="237" x2="216" y2="257.3" gradientUnits="userSpaceOnUse">
			<stop offset="0" stop-color="#3f51b5"/>
			<stop offset="1" stop-color="#3f51b5"/>
		</linearGradient>
		<linearGradient id="g4" x1="337.9" y1="210.1" x2="320" y2="229.9" gradientUnits="userSpaceOnUse">
			<stop offset="0" stop-color="#75cceb"/>
			<stop offset="1" stop-color="#75cceb"/>
		</linearGradient>
	</defs>
	<style>
		.s0 { fill: #3f51b5 } 
		.s1 { fill: url(#g1) } 
		.s2 { fill: #a79ddb } 
		.s3 { fill: #75cceb } 
		.s4 { fill: url(#g2) } 
		.s5 { fill: url(#g3) } 
		.s6 { fill: #6de1fc } 
		.s7 { fill: #6bb9db } 
		.s8 { fill: #c67445 } 
		.s9 { fill: #56403d } 
		.s10 { fill: #ffffff } 
		.s11 { fill: #fbb5ad } 
		.s12 { fill: #6e9cd7 } 
		.s13 { fill: #382624 } 
		.s14 { fill: #e2e2e2 } 
		.s15 { fill: none;stroke: #56403d;stroke-linecap: round;stroke-dasharray: 3 } 
		.s16 { fill: #009245 } 
		.s17 { fill: #5c2e2e } 
		.s18 { fill: none;stroke: #ffffff } 
		.s19 { fill: #9c91d6 } 
		.s20 { fill: url(#g4) } 
		.s21 { fill: #974c26 } 
		.s22 { fill: #999a1c } 
	</style>
	<path id="Layer" class="s0" d="m385.4 187.5c1.9 1.1 3.4 2.7 4.5 4.7c1.1 1.9 1.6 4 1.6 6.2c0 2.2-0.7 4.4-1.8 6.2c-1.1 1.9-2.8 3.5-4.7 4.5l-151.6 81.6q-1.9 0.9-3.8 1.4q-2 0.5-4.1 0.5q-2 0-4-0.5q-2-0.6-3.8-1.6l-197.4-110.4c-1.6-0.9-2.9-2.2-3.8-3.8c-0.9-1.5-1.4-3.3-1.4-5.1c-0.1-1.8 0.4-3.6 1.3-5.2c0.9-1.5 2.2-2.9 3.8-3.8l161.2-93.8z" />
	<path id="Layer" class="s1" d="m108.3 139.4l-36.7 20.1c-20.4 2.6-21.5-14.3-21.5-14.3l19.9-11.5" />
	<path id="Layer" class="s2" d="m92.2 142.9c-12.3 0-22.2-4.9-22.2-11c0-6 9.9-10.9 22.2-10.9c12.2 0 22.1 4.9 22.1 10.9c0 6.1-9.9 11-22.1 11z" />
	<path id="Layer" class="s2" d="m114.3 102.7v29.8c0 0-16.5 15.3-44.3 0.3v-30" />
	<path id="Layer" class="s2" d="m73.3 113.4c0 0-3.7-5.6-7.1-2.4c-3.5 3.2-0.5 14.5 9.7 15.6v4.5c0 0-12.8-1.7-14.5-13.2c-1.7-11.4 6.5-13.2 10.6-10.1" />
	<path id="Layer" class="s3" d="m241.6 167.3l-11 17.1q-0.4 0.7-1.1 1.2q-0.7 0.5-1.6 0.7q-0.8 0.2-1.6 0.1q-0.9-0.2-1.6-0.6l-45.4-26.4c-0.6-0.4-1.2-1-1.6-1.7c-0.4-0.7-0.6-1.5-0.5-2.3c0-0.8 0.2-1.6 0.7-2.3c0.4-0.6 1-1.2 1.8-1.5l19.1-9.2" />
	<path id="Layer" class="s4" d="m208.2 224.1l-16.9 11.1l-122.8-67.2l11.5-7.5l75.3 39.6" />
	<path id="Layer" class="s5" d="m244.4 254.4l-16.7 10.9c-13.7-5.7-25.4-17-25.4-17l17.9-10.6" />
	<path id="Layer" class="s6" d="m275.4 228.3v7.2l-31 18.9l-25.9-16v-8.3" />
	<path id="Layer" class="s7" d="m275.4 228.3v7.2l-31 18.9l-25.9-16v-8.3" />
	<path id="Layer" class="s3" d="m275.4 228.3l-30.6 17.8l-26.3-16l30.5-17.5l26.4 15.7z" />
	<path id="Layer" class="s8" d="m250.4 234q-0.3-0.3-0.5-0.6q-0.3-0.4-0.5-0.7q-0.2-0.3-0.4-0.7q-0.2-0.3-0.4-0.7c-0.1-0.6 1.5-3.7 1.8-3.6q0.4 0.2 0.8 0.4q0.3 0.2 0.7 0.5q0.4 0.2 0.7 0.5q0.4 0.3 0.7 0.5" />
	<path id="Layer" class="s9" d="m254.5 229q0 0.6-0.1 1.3q0 0.6-0.1 1.2q0 0.6-0.1 1.3q-0.1 0.6-0.1 1.2q-0.5 0-1 0.1q-0.4 0-0.9 0q-0.4 0-0.9 0q-0.5-0.1-0.9-0.1c-0.6-0.2 0.3-4.8 0.3-5" />
	<path id="Layer" class="s8" d="m255.5 229.6c-0.1 0.5-1.5 0.9-1.5 0.9c0 0-0.2 3.1-0.4 4.6q-0.1 0-0.2 0q-0.1 0-0.2 0q-0.1 0-0.2 0q-0.1 0-0.2 0q-0.1-0.5-0.2-1.1q0-0.5 0-1.1q-0.1-0.5-0.1-1.1q0-0.5 0-1q-0.3-0.2-0.6-0.4q-0.3-0.1-0.6-0.3q-0.3-0.2-0.5-0.4q-0.3-0.2-0.6-0.4c-0.6-0.6 0.2-4.8 0.2-4.9l4.6-1.3c0 0 0.5 6.1 0.5 6.5z" />
	<path id="Layer" class="s8" d="m264.4 255.7c0 0-2-2.6-2.1-3.4c-0.2-0.8 1.8-4.6 2.1-4.5q0.5 0.3 1 0.5q0.5 0.3 0.9 0.6q0.5 0.3 0.9 0.6q0.5 0.4 0.9 0.7" />
	<path id="Layer" class="s9" d="m269.5 249.4c0 0-0.2 6.3-0.5 6.3q-0.6 0-1.1 0.1q-0.6 0-1.2 0q-0.6 0-1.1 0q-0.6-0.1-1.2-0.1c-0.7-0.3 0.4-6 0.4-6.3" />
	<path id="Layer" class="s8" d="m270.7 250.3c-0.1 0.5-1.8 1.1-1.8 1.1c0 0-0.3 3.8-0.5 5.7q-0.1 0-0.3 0q-0.1 0-0.2 0q-0.1 0-0.3 0q-0.1 0-0.2 0q-0.1-0.7-0.2-1.4q0-0.6-0.1-1.3q0-0.7 0-1.4q0-0.7 0-1.3c0-0.2-2.2-1.1-2.9-1.8c-0.7-0.8 0.2-6 0.2-6.1l5.8-1.7c0 0 0.6 7.6 0.5 8.2z" />
	<path id="Layer" class="s7" d="m306.3 100.7q1.5 1.5 2.5 3.3q1.1 1.9 1.7 3.9q0.5 2.1 0.5 4.3v91.1c0 0.6-0.1 1.3-0.5 1.8c-0.3 0.6-0.8 1.1-1.3 1.4c-0.6 0.3-1.2 0.5-1.9 0.5c-0.6 0-1.3-0.2-1.8-0.5l-162.7-93.9q-0.6-0.4-1.2-0.9q-0.5-0.5-0.9-1.2q-0.4-0.7-0.6-1.4q-0.1-0.7-0.1-1.5v-91.4c0-1.3 0.3-2.4 0.9-3.5c0.6-1 1.4-1.9 2.5-2.5c1-0.6 2.2-1 3.4-1c1.2 0 2.4 0.4 3.5 1l152.6 87.9q1.8 1 3.4 2.6z" />
	<path id="Layer" class="s10" d="m151.3 17.1l148 85.1q1.2 0.7 2.2 1.6q0.9 1 1.6 2.2q0.7 1.2 1 2.5q0.4 1.3 0.4 2.7v68.6c0 0.6-0.2 1.3-0.5 1.8c-0.3 0.6-0.8 1.1-1.4 1.4c-0.5 0.3-1.2 0.5-1.8 0.5c-0.7 0-1.3-0.2-1.9-0.5l-150.9-86.6q-0.4-0.2-0.8-0.6q-0.3-0.3-0.6-0.7q-0.2-0.5-0.3-0.9q-0.2-0.5-0.2-1v-73.1q0.1-0.9 0.5-1.7q0.5-0.8 1.3-1.3q0.8-0.4 1.7-0.5q0.9 0 1.7 0.5z" />
	<path id="Layer" class="s6" d="m141.3 118.5c2.7-0.5 34.2 19.3 34.2 19.3v7.7l-12.9 7.2l-35.1-19.2v-9.1z" />
	<path id="Layer" class="s3" d="m141.3 118.5c2.7-0.5 34.2 19.3 34.2 19.3v7.7l-12.9 7.2l-35.1-19.2v-9.1z" />
	<path id="Layer" class="s2" d="m121.2 137.2q0.6-0.2 1.3-0.2q0.6 0 1.2 0.1q0.6 0.2 1.2 0.5l112.2 64.8q0.7 0.4 1.1 1.1q0.4 0.7 0.4 1.4q0 0.8-0.4 1.5q-0.4 0.6-1.1 1l-37.3 21.6q-1 0.6-2.2 0.9q-1.1 0.3-2.3 0.3q-1.1 0-2.3-0.3q-1.1-0.3-2.1-0.9l-110.9-63.8q-0.6-0.4-1-1q-0.4-0.6-0.4-1.4q0-0.7 0.4-1.3q0.4-0.7 1-1l40-22.9q0.6-0.3 1.2-0.4z" />
	<path id="Layer" class="s6" d="m145.4 213.3q-0.2 0.5-0.6 0.9q-0.4 0.3-0.9 0.5q-0.5 0.2-1 0.1c-1.8-0.3-3.6-1.6-5.2-2.5l-5.2-3l-6.7-4l-7.9-4.6l-8.5-5l-8.5-5l-8.1-4.7l-7.2-4.2l-5.8-3.4l-3.8-2.2l-1.4-0.8c2.9 3 9.8 7 13.1 8.7v1.7q-1.8-0.9-3.6-2q-1.8-1-3.5-2.1q-1.7-1.1-3.4-2.2q-1.7-1.2-3.4-2.3q-0.5-0.4-1-0.9q-0.5-0.5-0.9-1q-0.5-0.6-0.8-1.2q-0.3-0.6-0.5-1.2q-0.2-0.7 0-1.4q0.2-0.7 0.7-1.2q0.5-0.5 1.2-0.7q0.7-0.2 1.4 0c0.1 0 0.2 0 0.2-0.1l3.8 2.2l7.2 4.2l9.8 5.7l11.2 6.5l11.7 6.7l10.9 6.3l9.2 5.4l5.9 3.4q0.3 0.1 0.6 0.4q0.4 0.2 0.6 0.6q0.2 0.3 0.4 0.6q0.2 0.4 0.2 0.8q0 0.5-0.2 1z" />
	<path id="Layer" class="s2" d="m145.4 213.3q-0.2 0.5-0.6 0.9q-0.4 0.3-0.9 0.5q-0.5 0.2-1 0.1c-1.8-0.3-3.6-1.6-5.2-2.5l-5.2-3l-6.7-4l-7.9-4.6l-8.5-5l-8.5-5l-8.1-4.7l-7.2-4.2l-5.8-3.4l-3.8-2.2l-1.4-0.8c2.9 3 9.8 7 13.1 8.7v1.7q-1.8-0.9-3.6-2q-1.8-1-3.5-2.1q-1.7-1.1-3.4-2.2q-1.7-1.2-3.4-2.3q-0.5-0.4-1-0.9q-0.5-0.5-0.9-1q-0.5-0.6-0.8-1.2q-0.3-0.6-0.5-1.2q-0.2-0.7 0-1.4q0.2-0.7 0.7-1.2q0.5-0.5 1.2-0.7q0.7-0.2 1.4 0c0.1 0 0.2 0 0.2-0.1l3.8 2.2l7.2 4.2l9.8 5.7l11.2 6.5l11.7 6.7l10.9 6.3l9.2 5.4l5.9 3.4q0.3 0.1 0.6 0.4q0.4 0.2 0.6 0.6q0.2 0.3 0.4 0.6q0.2 0.4 0.2 0.8q0 0.5-0.2 1z" />
	<path id="Layer" class="s0" d="m212.5 146.4c-1.7 0.3-3.4-1-3.8-3c-0.4-2 0.7-3.9 2.5-4.2c1.7-0.4 3.4 1 3.8 3c0.4 2-0.7 3.8-2.5 4.2z" />
	<path id="Layer" class="s0" d="m212.4 65.4l43.2 25q0.3 0.2 0.6 0.4q0.2 0.3 0.4 0.7q0.2 0.3 0.3 0.7q0.1 0.3 0.1 0.7l-1.5 38.7q-0.1 0.8-0.4 1.4q-0.4 0.6-1.1 1q-0.6 0.3-1.4 0.3q-0.7 0-1.3-0.3l-41.7-24q-0.3-0.2-0.6-0.4q-0.2-0.3-0.4-0.6q-0.2-0.3-0.3-0.7q-0.1-0.3-0.1-0.7v-39.8q0-0.7 0.4-1.4q0.4-0.6 1-1q0.7-0.4 1.4-0.4q0.8 0 1.4 0.4z" />
	<path id="Layer" class="s11" d="m228 73.4q0.1 0.6 0.2 1.2q0 0.6 0 1.2q0.1 0.7 0.1 1.3c0.2 1.3 0.2 2.7-0.8 2.7c-0.7 0.1-1-1-1.2-1.7c-0.2 0.5-0.5 0.8-1 0.6c-0.5-0.2-0.6-0.6-0.7-1.2l-0.1 0.1c-0.9 0.2-1.4-0.8-1.5-1.6c-1 0.1-1.1-1-1.1-1.9q0-0.4 0.2-0.8q0.1-0.4 0.3-0.8q0.2-0.4 0.5-0.8q0.2-0.3 0.5-0.6c1.7-0.1 2.7-0.5 4.3-0.4l0.2 1.4q0 0 0 0q0 0 0 0q0 0 0 0q0 0.1 0 0.1q0.1 0.6 0.1 1.2z" />
	<path id="Layer" class="s9" d="m223.6 73.8q-0.1 0.3-0.2 0.5q0 0.3-0.1 0.6q0 0.3 0 0.6q-0.1 0.2 0 0.5c0 0.3-0.4 0.3-0.4 0q0-0.3 0-0.6q0-0.3 0-0.6q0.1-0.2 0.1-0.5q0.1-0.3 0.2-0.6c0.1-0.2 0.5-0.1 0.4 0.1z" />
	<path id="Layer" class="s9" d="m225 74.5l-0.2 3.2c0 0.2-0.3 0.2-0.3 0l0.1-3.2c0-0.3 0.4-0.3 0.4 0z" />
	<path id="Layer" class="s9" d="m226.1 73.9q0-0.1 0.1-0.1q0.1 0 0.1 0.1q0.1 0 0.1 0.1v4.3q0 0-0.1 0.1q0 0-0.1 0q-0.1 0-0.1 0q-0.1-0.1-0.1-0.2v-4.2q0-0.1 0.1-0.1z" />
	<path id="Layer" class="s11" d="m227.7 70.7q0.5 0.5 0.8 1.1q0.4 0.5 0.7 1.1q0.2 0.7 0.4 1.3q0.2 0.7 0.2 1.3l-1.8-1.1z" />
	<path id="Layer" class="s11" d="m248 81.3c-0.8 1.6-3.6 5.1-5.4 6c-0.4 0.2-0.8-0.2-0.8-0.6q0 0 0-0.1q0 0 0-0.1q0 0 0-0.1q0 0 0-0.1c-0.7 0.4-1.9 1-2.5 0.4q0 0-0.1-0.1q0 0-0.1-0.1q0 0 0-0.1q-0.1-0.1-0.1-0.1q-0.1 0.1-0.3 0.2q-0.2 0-0.4 0q-0.2 0.1-0.4 0q-0.2 0-0.3-0.1q-0.2 0-0.2-0.1q-0.1-0.1-0.2-0.2q0-0.2 0-0.3q0-0.1 0-0.2c-0.7 0.1-1.3 0-1.5-0.6c-0.4-1 1.4-1.8 2.1-2.2c1.2-0.5 4.2-2.1 5.4-2.8c0 0 1.3-0.2 1.3-0.2c1.7 0.7 1.8 0.9 3.5 1.5z" />
	<path id="Layer" class="s9" d="m243.6 84.8q-0.1 0.3-0.3 0.5q-0.2 0.2-0.5 0.5q-0.2 0.2-0.4 0.4q-0.2 0.2-0.5 0.4c-0.1 0.1-0.4-0.1-0.2-0.3q0.2-0.1 0.4-0.3q0.3-0.2 0.5-0.5q0.2-0.2 0.4-0.4q0.1-0.2 0.3-0.5c0.1-0.2 0.5 0 0.3 0.2z" />
	<path id="Layer" class="s9" d="m242.5 84q-1.5 1.2-3.2 2.4c-0.1 0.1-0.3-0.2-0.1-0.3q1.5-1.2 3.1-2.4c0.1-0.1 0.4 0.1 0.2 0.3z" />
	<path id="Layer" class="s9" d="m240.8 83.6q-0.4 0.3-0.8 0.5q-0.5 0.3-0.9 0.6q-0.4 0.2-0.9 0.4q-0.4 0.3-0.9 0.5c-0.1 0.1-0.3-0.2-0.1-0.3q0.4-0.2 0.9-0.5q0.4-0.2 0.8-0.4q0.5-0.3 0.9-0.6q0.4-0.2 0.8-0.5c0.2-0.1 0.4 0.2 0.2 0.3z" />
	<path id="Layer" class="s11" d="m241 82.2l-2.4-1.5c2.9-1.9 4.6-0.7 4.6-0.7" />
	<path id="Layer" class="s11" d="m280.6 147q0 0.4 0 0.9q-0.1 0.4-0.2 0.8q-0.2 0.5-0.4 0.8q-0.2 0.5-0.4 1q-0.2 0.5-0.4 1q-0.2 0.5-0.3 0.9q-0.2 0.5-0.3 1q-0.5-0.2-1-0.5q-0.5-0.3-0.9-0.5q-0.5-0.2-1-0.5q-0.5-0.2-1-0.4q0-0.2 0.1-0.3q0-0.2 0.1-0.3q0-0.2 0-0.3q0.1-0.2 0.1-0.3q-0.2-0.4-0.4-0.7q-0.2-0.3-0.4-0.6q-0.2-0.4-0.3-0.7q-0.2-0.4-0.4-0.7c-0.2-0.5-0.8-1.2-0.1-1.7c0.8-0.5 1.4 0.6 1.8 1.4c0-0.3 0-0.5 0-1c0-0.4-0.1-0.9-0.1-1.4q0-0.1 0-0.2q-0.1-0.2-0.1-0.3q0-0.2 0.1-0.3q0-0.2 0-0.3q0-0.1 0-0.2q0-0.1 0.1-0.1q0-0.1 0-0.2q0.1-0.1 0.2-0.1q0-0.1 0.1-0.1q0.1 0 0.1-0.1q0.1 0 0.2 0q0.1 0 0.2 0q0 0 0 0q0.1 0 0.1 0q0.1 0 0.1 0.1q0 0 0.1 0c0 0 0.2 0.2 0.2 0.3c0.2-0.6 0.5-1 1-1q0.1 0 0.2 0q0.1 0 0.2 0.1q0 0 0.1 0.1q0 0.1 0 0.2q0.1 0.1 0.1 0.2q0.1 0.1 0.1 0.2q0 0.1 0.1 0.2q0 0.1 0 0.3q0.1-0.1 0.2-0.2q0.1-0.1 0.2-0.1q0.1 0 0.2 0q0.1 0 0.2 0c0.6 0.2 0.6 0.9 0.6 1.3q0.1 0.2 0.1 0.3q0 0.1 0 0.2q0 0.2 0 0.3q0 0.1-0.1 0.2q0.1 0 0.3 0q0.1 0 0.2 0.1q0.1 0 0.1 0.1q0.1 0.1 0.1 0.2q0.2 0.4 0.2 0.9z" />
	<path id="Layer" class="s9" d="m276.6 143.4q-0.1 1.9-0.2 3.8c0 0.2-0.2 0.2-0.2 0q0.2-1.9 0.2-3.8c0-0.2 0.2-0.2 0.2 0z" />
	<path id="Layer" class="s9" d="m278.4 143.6q-0.2 1.8-0.5 3.6c0 0.1-0.1 0.1-0.1 0q0.2-1.8 0.4-3.5c0-0.1 0.2-0.1 0.2-0.1z" />
	<path id="Layer" class="s9" d="m279.9 145.8q-0.2 1.3-0.4 2.5c0 0.1-0.2 0.1-0.2 0q0.3-1.2 0.4-2.4c0-0.2 0.2-0.2 0.2-0.1z" />
	<path id="Layer" class="s11" d="m240.7 147.1l-4.1 2l-2.4-2.7c0 0-4.1-3.8-4-4.6q0-0.1 0-0.1q-0.1-0.1-0.1-0.2q0-0.1 0.1-0.2q0 0 0-0.1q0-0.1 0.1-0.2q0-0.1 0.1-0.2q0.1-0.1 0.2-0.2q0.1-0.1 0.2-0.1h0.1q0-0.1 0-0.3q0-0.1 0-0.2q0-0.1 0.1-0.3q0-0.1 0.1-0.2q0.1-0.1 0.2-0.2q0 0 0.1-0.1q0.1 0 0.2-0.1q0.2 0 0.3 0q0 0 0.1 0q0.1 0 0.1 0q0.1 0 0.2 0.1q0 0 0.1 0h0.2q-0.1-0.1-0.1-0.3q0-0.2 0-0.4q0-0.2 0.1-0.4q0.1-0.2 0.3-0.3q0.1-0.1 0.2-0.2q0.1 0 0.3 0q0.1 0 0.3 0q0.1 0.1 0.2 0.2q-0.5-1.2-0.9-2.4q-0.1-0.1-0.1-0.3q0.1-0.2 0.2-0.3q0.1-0.2 0.2-0.3q0.2-0.1 0.4-0.1c1.6 0.2 2.3 2.3 3 3.5l0.4 0.7q0.2-0.2 0.6-0.2q0.3-0.1 0.6 0q0.3 0.2 0.5 0.4q0.2 0.2 0.3 0.5q0.2 0.5 0.4 1q0.1 0.5 0.2 1q0.1 0.5 0.2 1q0 0.5 0 1q0 0.2 0 0.4q0 0.1 0 0.3q-0.1 0.1-0.1 0.3q0 0.2 0 0.3q-0.1 0.1-0.1 0.1q0 0.1 0.1 0.1q0 0.1 0 0.2q0 0 0 0.1q0.2 0.4 0.4 0.8c0 0.1 0.5 1.1 0.5 1.2z" />
	<path id="Layer" class="s12" d="m275.4 243.5q-1.9 0.7-3.8 1.2q-1.9 0.6-3.8 0.9q-2 0.3-3.9 0.4q-2 0.1-4 0.1l-0.1-43.7q0-0.1-0.1-0.2q-0.1 0-0.2 0q-0.1 0-0.1 0q-0.1 0.1-0.1 0.2v22c-3.2 0.9-9.9 1.2-12.9 0.1c-0.8-5.5-0.8-23.8 0.8-29.5q0.6-1.7 1.3-3.3q0.7-1.7 1.5-3.2q0.8-1.6 1.7-3.1q1-1.5 2-3c0 0 6.8-12 14 0.3c6.8 11.6 8.9 60.4 7.7 60.8z" />
	<path id="Layer" class="s2" d="m253.2 159.4l-0.8 13.4c-9.5-4-17-22.9-17.7-25.3c1.9-1.2 3.4-2.3 5.5-2.8c8.8 14.3 13 14.7 13 14.7z" />
	<path id="Layer" class="s2" d="m275.3 150.7q0.9 0.2 1.8 0.5q0.8 0.4 1.6 0.9q0.8 0.5 1.5 1.2c-0.9 3.6-7 17.3-12.8 21.1l-1.3-12.4q1.5-0.9 2.8-2.2q1.2-1.2 2.2-2.7q1-1.5 1.6-3.2q0.6-1.6 0.8-3.4q0.9 0 1.8 0.2z" />
	<path id="Layer" class="s2" d="m268.5 173.5v11.2c-6.7 3.4-15.9 0-15.9 0l-1.2-11.1" />
	<path id="Layer" fill-rule="evenodd" class="s9" d="m263.9 177.9q-1.6 0.4-3.2 0.5q-1.7 0.1-3.3-0.1q-1.6-0.2-3.2-0.7q-1.6-0.4-3-1.2q-0.6-0.3-1.1-0.7q-0.6-0.5-0.9-1q-0.4-0.6-0.6-1.2q-0.2-0.7-0.3-1.4c0-2.5 4.7-3.8 2.7-6.5q-0.4-0.4-0.6-0.8q-0.3-0.4-0.5-0.9q-0.2-0.4-0.3-0.9q-0.1-0.4-0.2-0.9q-0.1-0.1-0.1-0.2q0-0.2 0-0.3q0-0.1 0-0.2q0-0.2 0-0.3c0.3-1.7 3.2-1.8 2.9-4.1q0 0 0-0.1q-0.1-0.1-0.1-0.2q0-0.1 0-0.2q-0.1 0-0.1-0.1c0.2-2.3-0.1-4.8 1.5-6.6q0.7-0.8 1.5-1.3q0.9-0.5 1.9-0.7q1-0.3 2-0.3q1 0.1 2 0.4c2.3 0.8 3.5 3.2 4.3 5.3q0.1 0.5 0.3 1q0.1 0.5 0.3 1q0.2 0.5 0.4 0.9q0.2 0.5 0.4 1q0 0.3 0.1 0.6q0.1 0.2 0.3 0.5q0.1 0.3 0.3 0.5q0.2 0.3 0.4 0.5c1 1.1 2.1 1.7 2.3 3.4c0.2 1.1-0.9 2.6-0.6 3.5q0 0.1 0.1 0.2q0 0 0.1 0.1q0 0.1 0.1 0.1q0.1 0.1 0.1 0.2q0.3 0.2 0.6 0.4q0.2 0.3 0.5 0.5q0.3 0.3 0.5 0.6q0.3 0.2 0.5 0.5q0.2 0.2 0.3 0.4q0.1 0.2 0.2 0.4q0.1 0.2 0.2 0.5q0.1 0.2 0.2 0.4c1.1 4.1-5.7 6.7-8.9 7.5zm-8.7-11.8l-0.2 0.1q0 0 0 0.1z" />
	<path id="Layer" class="s9" d="m259.3 202.4l-0.5 5.2l-9.7-7.5l10.2 2.3z" />
	<path id="Layer" class="s9" d="m234.9 140.4q-0.3-0.6-0.6-1.2q-0.2-0.6-0.5-1.2q-0.2-0.7-0.5-1.3q-0.2-0.6-0.4-1.3c-0.1-0.2 0.3-0.3 0.4-0.1q0.2 0.6 0.4 1.3q0.3 0.6 0.5 1.2q0.3 0.6 0.5 1.2q0.3 0.6 0.6 1.2c0.1 0.2-0.2 0.5-0.4 0.2z" />
	<path id="Layer" class="s9" d="m233.7 141.4q0 0 0 0.1q-0.1 0-0.2 0q-0.1 0-0.1-0.1q-0.2-0.2-0.3-0.5q-0.2-0.3-0.3-0.5q-0.1-0.3-0.3-0.5q-0.1-0.3-0.2-0.6c-0.1-0.2 0.3-0.5 0.4-0.2q0.1 0.3 0.2 0.5q0.1 0.3 0.3 0.6q0.1 0.2 0.2 0.5q0.2 0.2 0.3 0.5q0.1 0.1 0 0.2z" />
	<path id="Layer" class="s9" d="m231.8 142.5q-0.2-0.2-0.3-0.5q-0.2-0.2-0.3-0.4q-0.1-0.3-0.2-0.6q-0.1-0.2-0.2-0.5c-0.1-0.3 0.3-0.4 0.4-0.1q0.1 0.3 0.2 0.5q0.1 0.3 0.2 0.5q0.1 0.2 0.3 0.5q0.1 0.2 0.3 0.4c0.2 0.2-0.2 0.4-0.4 0.2z" />
	<path id="Layer" class="s9" d="m238.2 141.3q-0.7-1.3-1.2-2.7c-0.1-0.3 0.3-0.4 0.4-0.1q0.5 1.3 1.2 2.6c0.1 0.2-0.3 0.4-0.4 0.2z" />
	<path id="Layer" class="s11" d="m143.4 64q0 0 0 0q0 0.1 0 0.1q0 0.1 0 0.1c0 0.4-0.2 0.8-0.6 0.7c-1.8-0.2-3.9-2.2-3-4.1q0.2-0.3 0.5-0.5q0.2-0.2 0.6-0.3q0.3 0 0.7 0.1q0.3 0.1 0.5 0.3q0.4 0.3 0.6 0.7q0.3 0.3 0.4 0.7q0.2 0.4 0.3 0.9q0.1 0.4 0.1 0.9q0 0 0 0q0 0.1 0 0.1q0 0.1-0.1 0.1q0 0.1 0 0.1q0 0 0 0.1z" />
	<path id="Layer" class="s13" d="m141.7 97.3l-0.6 5.9l-2.9-7.9l3.5 2z" />
	<path id="Layer" class="s10" d="m188.8 178.9c-2.2 1.3-9.1 5.4-11.5 6.8l-8.4-5l11.4-6.7z" />
	<path id="Layer" class="s10" d="m178.6 173c-2.7 1.6-9.6 5.6-11.5 6.7l-10.7-6.2l11.4-6.7z" />
	<path id="Layer" class="s10" d="m132.6 146.3c-2.8 1.7-9.8 5.8-11.4 6.8l-10.3-6l11.5-6.7z" />
	<path id="Layer" class="s10" d="m155.3 159.5c-2.5 1.5-9.4 5.6-11.4 6.7l-8.5-4.9l11.4-6.7z" />
	<path id="Layer" class="s10" d="m145.1 153.6c-3 1.7-10.2 6-11.4 6.7l-10.8-6.2l11.4-6.8z" />
	<path id="Layer" class="s10" d="m198.6 184.7c-2.1 1.3-9 5.3-11.4 6.8l-8.1-4.7l11.4-6.8z" />
	<path id="Layer" class="s10" d="m166.1 165.7c-2.4 1.5-9.3 5.6-11.4 6.8l-9-5.2l11.4-6.8z" />
	<path id="Layer" class="s10" d="m211.1 191.9c-2.3 1.4-9.1 5.5-11.4 6.8l-10.7-6.3l11.4-6.7z" />
	<path id="Layer" class="s10" d="m212.9 192.9l19.4 11.3l-11.6 6.6l-19.2-11.1l11.4-6.8z" />
	<path id="Layer" class="s10" d="m124.3 157.6c-2.6 1.5-9.5 5.6-11.5 6.7l-15-8.6l11.6-6.7z" />
	<path id="Layer" class="s10" d="m146.9 170.8c-2.3 1.4-9.2 5.4-11.4 6.8l-8.5-4.9l11.4-6.8z" />
	<path id="Layer" class="s10" d="m170.2 184.3c-2.5 1.5-9.3 5.5-11.5 6.8l-10.7-6.3l11.4-6.7z" />
	<path id="Layer" class="s10" d="m157.7 177.1c-2.2 1.3-9.1 5.3-11.4 6.7l-9-5.2l11.4-6.8z" />
	<path id="Layer" class="s10" d="m180.4 190.3c-1.9 1.1-8.8 5.2-11.4 6.7l-8.5-4.9l11.4-6.8z" />
	<path id="Layer" class="s10" d="m190.3 196c-1.9 1.1-8.8 5.1-11.5 6.7l-8.1-4.7l11.4-6.7z" />
	<path id="Layer" class="s10" d="m136.8 164.9c-2.8 1.6-9.8 5.7-11.5 6.7l-10.7-6.2l11.4-6.7z" />
	<path id="Layer" class="s10" d="m202.8 203.3c-2.2 1.2-9 5.3-11.5 6.7l-10.7-6.3l11.4-6.7z" />
	<path id="Layer" class="s10" d="m193.1 211l11.4-6.7l14.7 8.5l-11.5 6.7l-14.6-8.5z" />
	<path id="Layer" class="s10" d="m184.6 209.9l9.9 5.8l-8.6 4.9l-9.8-5.7l8.5-5z" />
	<path id="Layer" class="s10" d="m188 221.8l8.4-5.1l8.5 5l-8.6 4.9l-8.3-4.8z" />
	<path id="Layer" class="s10" d="m95.1 157.9l9.9 5.8l-8.7 5l-10.1-5.9l8.9-4.9z" />
	<path id="Layer" class="s10" d="m106.9 164.8l10.9 6.3l-8.7 5l-10.8-6.3l8.6-5.1z" />
	<path id="Layer" class="s10" d="m119.7 172.2l63 36.6l-8.6 4.9l-63-36.5l8.6-5z" />
	<path id="Layer" class="s14" d="m162.3 66.7c-6 0.2-10.9-7.5-11.2-17.2c-0.3-9.6 4.3-17.6 10.2-17.8c5.9-0.1 10.9 7.6 11.1 17.2c0.3 9.7-4.2 17.7-10.1 17.8z" />
	<path id="Layer" class="s0" d="m170.1 47.2c-0.8 8.9-6.2 15.6-12.1 15.1c-5.9-0.5-10-8.1-9.2-17c0.8-8.9 6.2-15.6 12.1-15.1c5.9 0.6 10 8.2 9.2 17z" />
	<path id="Layer" class="s10" d="m163.5 44.9c-0.3 2.5-2.3 4.4-4.7 4.2c-2.3-0.2-4-2.4-3.7-5c0.2-2.6 2.3-4.5 4.6-4.3c2.3 0.2 4 2.5 3.8 5.1z" />
	<path id="Layer" class="s10" d="m150.1 54.7c0 0 2.5-5.5 7-4.8c4.4 0.7 7.2 3 9 9.2q-0.8 1.2-1.9 2.1q-1.1 0.8-2.5 1.3q-1.3 0.5-2.7 0.5q-1.4 0-2.8-0.4q-1.2-0.6-2.2-1.4q-1-0.8-1.8-1.8q-0.8-1-1.3-2.2q-0.6-1.2-0.8-2.5z" />
	<path id="Layer" class="s11" d="m172.8 52.6c0.7 1.3-2.3 4.3-2.9 4.9q-0.6 0.6-1.2 1.2q-1.3 1.7-2.9 3.2q-1.5 1.5-3.2 2.7q-1.7 1.3-3.5 2.4q-1.9 1.1-3.9 1.9c-1.4 0.6-2-1.7-0.6-2.3l0.9-0.4q-0.2 0-0.3-0.1q-0.1-0.1-0.2-0.3q0-0.1-0.1-0.2q-0.1-0.1-0.1-0.3q-0.2 0-0.3-0.1q-0.2-0.1-0.3-0.3q-0.1-0.1-0.2-0.3q0-0.1 0-0.3q-0.4-0.1-0.7-0.4q-0.3-0.3-0.3-0.7q0-0.5 0.2-0.8q0.2-0.3 0.6-0.5q1.9-0.5 3.7-1.3q1.8-0.9 3.5-1.9q1.6-1 3.1-2.3q1.6-1.2 2.9-2.6q0.1-0.1 0.1-0.1q0 0 0.1-0.1q0 0 0.1 0q0 0 0.1-0.1q0.1-0.4 0.2-0.9q0.1-0.5 0.1-0.9q0.1-0.5 0.1-1q0-0.5 0-0.9c0-0.9 1.2-0.8 1.2 0c0.1 0.8 0.2 1.6 0.3 2.4q0.5-0.8 1.1-1.7c0.5-0.7 1.1-2 2.1-2.2q0.2 0 0.4 0q0.2 0.1 0.3 0.3q0.1 0.2 0.1 0.4q0 0.2-0.1 0.4q0 0.1 0.1 0.1q0.1 0.1 0.1 0.2q0.1 0.1 0.1 0.1q0 0.1 0 0.2q0 0.2 0 0.3q0 0.1-0.1 0.3q0 0.1-0.1 0.2q-0.1 0.1-0.2 0.2q0 0.1 0 0.1q0.1 0 0.1 0q0 0 0 0.1q0 0 0 0c0.2 0.6-0.2 0.9-0.4 1.4z" />
	<path id="Layer" class="s11" d="m152.1 38q-0.2 0.4-0.3 0.9q-0.2 0.4-0.3 0.9q-0.1 0.4-0.2 0.8l-0.2 0.3l-1.1 0.5c-0.1-0.6 1-3.6 2.4-4.2q-0.2 0.4-0.3 0.8z" />
	<path id="Layer" class="s11" d="m152.6 39.7q0 0.1 0 0.1q0 0.1 0 0.1q-0.1 0-0.1 0.1c0.1 0.3-0.3 0.7-0.6 1l-1.4 1.1q-0.1 0.2-0.1 0.5q-0.1 0.3-0.1 0.5q0 0.3 0 0.6q0 0.2 0 0.5q0 0.4 0 0.8q0 0.4-0.1 0.8q-0.1 0.3-0.3 0.7q-0.1 0.4-0.3 0.7q0 0 0 0q0 0.1 0 0.1q0 0 0 0q0 0.1 0 0.1c-0.9 1.5-1.9 4.1-2.8 5c0 0-0.1-1.1-0.1-1.1q0 0.1-0.1 0.2q0 0-0.1 0.1q0 0-0.1 0q0 0.1-0.1 0.1l-0.5 0.6q-0.2 0.1-0.4 0.2q-0.2 0-0.4 0q-0.2-0.1-0.3-0.2q-0.2-0.1-0.2-0.3l-0.2 0.1q0 0.1-0.1 0.1q0 0-0.1 0.1q0 0-0.1 0.1q0 0-0.1 0q-0.1 0.1-0.1 0.1q-0.1 0-0.2 0q-0.1 0-0.2 0q-0.1 0-0.2-0.1l-0.6 0.6c-0.7 0.7-1.8-0.4-1.1-1.2q0.6-0.5 1.2-1.1q0.5-0.7 1.1-1.3q0.5-0.6 1-1.3q0.5-0.7 0.9-1.4q0.2-0.4 0.5-0.7q0.2-0.4 0.4-0.8q0.2-0.3 0.4-0.7q0.2-0.4 0.4-0.8q0.3-0.7 0.6-1.5q0.1-0.1 0.1-0.3q0.1-0.1 0.1-0.3q0.1-0.1 0.2-0.3q0.1-0.1 0.2-0.2q0.2-0.2 0.4-0.4q0.2-0.1 0.4-0.3q0.3-0.1 0.5-0.3q0.2-0.1 0.5-0.2c0.5-0.3 1.3-0.9 1.9-0.4q0.1 0 0.1 0.1q0 0 0.1 0q0 0 0 0q0.1 0 0.1 0.1q0 0 0 0z" />
	<path id="Layer" class="s2" d="m160.2 66.5q-1.1 0.9-2.4 1.5q-1.3 0.6-2.7 1q-1.3 0.4-2.7 0.5q-1.5 0.2-2.9 0.1l-2.4 11q-0.2 0.1-0.5 0.2q-0.3 0.1-0.7 0.2q-0.3 0.1-0.6 0.1q-0.3 0-0.6 0.1q-0.6-0.1-1.1-0.1q-0.5 0-1 0q-0.5-0.1-1-0.1q-0.6-0.1-1.1-0.2q-0.8-0.1-1.6-0.2q-0.7-0.2-1.5-0.5q-0.7-0.2-1.5-0.6q-0.7-0.4-1.3-0.8c0.4-6.2 1.6-18.8 5-23.2c4.4-5.9 5 1.6 5 1.6c0 0 2.6 3.4 5 3.4c2.4 0.1 3.2 0.7 8.3-0.8z" />
	<path id="Layer" class="s11" d="m147 50.7c0 0 3.3 6.2 0 8c-3.3 1.7-5.7-1.2-6-1.9c-0.2-0.8-0.1-1.7 0.1-2.5c0.3-0.8 0.7-1.5 1.3-2.1c0.6-0.6 1.3-1.1 2.1-1.3c0.8-0.3 1.7-0.4 2.5-0.2z" />
	<path id="Layer" class="s9" d="m147.4 49.9q0.1 0 0.1 0.1q0.1 0.1 0.1 0.2q0 0 0 0.1q0.1 0.2 0 0.3q0 0.2 0 0.3q-0.1 0.2-0.2 0.3q-0.1 0.1-0.3 0.1q-0.1 0.1-0.3 0.1q-0.1 0.1-0.3 0.1q-0.1 0.1-0.2 0.2q-0.2 0-0.3 0.1q-0.1 0-0.1 0.1q-0.1 0-0.2 0q0 0-0.1 0q-0.1 0-0.2 0q-0.1 0.2-0.1 0.4q-0.1 0.2-0.2 0.4q0 0.2 0 0.4q0 0.2 0 0.4c0 0.7 0.1 1.1 0.7 1.4c0.9 0.4 1.8 0.8 1.8 2c0 0.6-0.7 1.8 0 2.2q0.2 0.1 0.4 0.2q0.2 0.1 0.3 0.1q0.2 0.1 0.4 0.2q0.1 0.1 0.3 0.3q0.1 0 0.1 0.1q0.1 0.1 0.2 0.2q0 0 0.1 0.1q0 0.1 0.1 0.2q-0.7 0.8-1.6 1.4q-0.8 0.7-1.7 1.2q-1 0.5-2 0.8q-1 0.4-2 0.6q-1 0.2-2 0.3q-1 0-2 0q-1-0.1-1.9-0.4q-1-0.3-1.9-0.7q0.1-0.1 0.1-0.3q0.1-0.1 0.1-0.2q0.1-0.2 0.2-0.3q0.1-0.1 0.2-0.3q0.1-0.1 0.1-0.2q0.1-0.1 0.2-0.2q0-0.2 0.1-0.3q0-0.1 0.1-0.3c0-0.5-0.5-1-0.6-1.5q-0.1-0.2-0.1-0.4q0-0.1 0-0.3q0.1-0.2 0.1-0.4q0.1-0.2 0.1-0.3c0.5-1 1.6-1.6 1.5-2.8v-0.2q-0.3 0.1-0.6 0.2q-0.3 0-0.6 0q-0.3-0.1-0.6-0.2q-0.3 0-0.6-0.2q-0.4-0.2-0.6-0.5q-0.3-0.4-0.4-0.8q-0.1-0.4-0.1-0.8q0-0.4 0.1-0.8q0.2-0.4 0.5-0.8q0.3-0.3 0.7-0.6q0.3-0.2 0.8-0.3q0.4-0.1 0.9-0.1q0.2 0 0.4 0q0.1 0.1 0.3 0.1q0.2 0.1 0.4 0.2q0.1 0.1 0.3 0.2q0.4-0.5 0.9-0.8q0.5-0.4 1.1-0.7q0.5-0.3 1.1-0.5q0.6-0.2 1.2-0.3q0.7-0.2 1.4-0.3q0.8 0 1.5 0.1q0.7 0.1 1.4 0.3q0.7 0.3 1.3 0.7q0.1 0 0.1 0.1z" />
	<path id="Layer" class="s9" d="m137.6 58.1c0 0-3.3-8.2 3.6-9.6c6.9-1.3 6.6 2.6 6.6 2.7q-0.3 0.2-0.7 0.3q-0.4 0.2-0.7 0.3q-0.4 0.1-0.8 0.3q-0.4 0.1-0.8 0.1" />
	<path id="Layer" class="s15" d="m210.2 61.1l48.2 28.4q0.3 0.2 0.6 0.5q0.3 0.3 0.5 0.7q0.3 0.4 0.3 0.8q0.1 0.4 0.1 0.8l-1.6 44q-0.1 0.8-0.5 1.5q-0.4 0.7-1.1 1.1q-0.8 0.4-1.6 0.4q-0.8 0-1.6-0.4l-46.5-27.1q-0.4-0.3-0.7-0.6q-0.3-0.3-0.5-0.6q-0.2-0.4-0.3-0.8q-0.1-0.4-0.1-0.8v-45.2q0-0.8 0.4-1.5q0.5-0.8 1.2-1.2q0.7-0.4 1.6-0.4q0.8 0 1.6 0.4z" />
	<path id="Layer" class="s6" d="m238.6 48.2c0 0 16.3 2.2 19.3 12.1c3 9.9-6.6 23.8-11 23.9l-5.3-5q1.6-0.9 3-2.2q1.3-1.3 2.2-3q0.9-1.7 1.3-3.5q0.4-1.9 0.2-3.8l-19.4-10.8c-1.8 1.6-0.1 14.6-0.6 14.8q-0.7 0.3-1.5 0.4q-0.7 0.1-1.5 0.1q-0.8 0-1.5-0.1q-0.8-0.2-1.5-0.5c-6-15.1-0.5-20.2 5.3-23c5.8-2.8 10.3 0.2 12.3 1.1" />
	<path id="Layer" class="s2" d="m238.6 48.2c0 0 16.3 2.2 19.3 12.1c3 9.9-6.6 23.8-11 23.9l-5.3-5q1.6-0.9 3-2.2q1.3-1.3 2.2-3q0.9-1.7 1.3-3.5q0.4-1.9 0.2-3.8l-19.4-10.8c-1.8 1.6-0.1 14.6-0.6 14.8q-0.7 0.3-1.5 0.4q-0.7 0.1-1.5 0.1q-0.8 0-1.5-0.1q-0.8-0.2-1.5-0.5c-6-15.1-0.5-20.2 5.3-23c5.8-2.8 10.3 0.2 12.3 1.1" />
	<path id="Layer" class="s16" d="m246.5 48.3c-1.6 1.7-4.5 1-6.4 0.5c-2.2-0.6-4.5-2.1-4.3-4.6c0-0.3 0.6-0.3 0.6 0c-0.2 2.4 2.1 3.7 4.1 4.1c1.7 0.4 4.3 1.1 5.6-0.4c0.2-0.3 0.6 0.1 0.4 0.4z" />
	<path id="Layer" class="s11" d="m243.2 39.2c5 1 4.3 11.8 4.3 11.8c0 0-2.7 5.7-7.7 4.8c-4.5-0.8-4.5-13.1-4.5-13.1c0.1-1.6 3-4.4 7.9-3.5z" />
	<path id="Layer" class="s9" d="m239.1 51.6q-0.1 0.1-0.2 0q-0.1 0-0.2 0q-0.2 0-0.3-0.1q-0.1 0-0.2-0.1q0 0 0 0q-0.1-0.1-0.1-0.1q0-0.1 0-0.1q0-0.1 0-0.1q0-0.5 0-0.9q0.1-0.5 0.2-1q0-0.4 0.1-0.9q0.1-0.4 0.2-0.9q0-0.1 0.1-0.2q0.1 0 0.2 0q0.1 0 0.2 0.1q0.1 0.1 0.1 0.2q-0.1 0.5-0.2 0.9q0 0.4-0.1 0.8q-0.1 0.5-0.1 0.9q0 0.4-0.1 0.9q0.1 0 0.1 0q0 0 0.1 0q0 0 0.1 0q0 0 0.1 0c0.4 0 0.4 0.6 0 0.6z" />
	<path id="Layer" class="s9" d="m241.5 51.5q-0.2 0.4-0.5 0.7q-0.3 0.2-0.7 0.4q-0.3 0.2-0.8 0.2q-0.4 0-0.8-0.2c-0.2-0.1-0.1-0.5 0.1-0.4q0.4 0.2 0.7 0.1q0.4 0 0.7-0.1q0.3-0.1 0.6-0.4q0.2-0.2 0.3-0.6c0.2-0.2 0.5 0 0.4 0.3z" />
	<path id="Layer" class="s9" d="m240.8 49.6q0.1 0.1 0.1 0.2q0 0.1-0.1 0.2q-0.1 0.1-0.2 0.1q-0.2 0-0.2-0.1q-0.1-0.1-0.1-0.2q0-0.1 0.1-0.2q0-0.1 0.2-0.1q0.1 0 0.2 0.1z" />
	<path id="Layer" class="s9" d="m236.8 48.7q0.1 0.1 0.1 0.3q0 0.1-0.1 0.2q-0.1 0.1-0.2 0.1q-0.1 0-0.2-0.1q-0.1-0.1-0.1-0.3q0-0.1 0.1-0.2q0.1-0.1 0.2-0.1q0.1 0 0.2 0.1z" />
	<path id="Layer" class="s11" d="m244 49.8c0 0 1.2-4.7 2.5-3.1c1.3 1.5-2.1 4.9-2.1 4.9" />
	<path id="Layer" class="s17" d="m245.2 37.7c0 0 4.4 0.5 5.7 4c1.3 3.5-2 10.5-4.4 11.5l2.9-6.1l-0.1-4.1z" />
	<path id="Layer" fill-rule="evenodd" class="s17" d="m250.9 44.9q-0.1 0.8-0.3 1.6q-0.1 0.7-0.4 1.5q-0.3 0.8-0.7 1.5q-0.2 0.5-0.6 1q-0.3 0.5-0.7 1q-0.4 0.5-0.8 0.9q-0.4 0.4-0.9 0.8c0.3-1.5 0.5-3-0.3-4.3q0-0.1-0.1-0.1q0-0.1-0.1-0.1q-0.1 0-0.2 0q-0.1 0-0.1 0.1q-0.2 0-0.4 0q-0.1-0.1-0.3 0q-0.2 0-0.4 0q-0.2 0-0.3 0.1c-0.2-0.5-0.4-0.9-0.5-1c-0.9 0-2.1-0.5-2.3-1.5c-0.1-1.1-1.2 0.3-3.4-0.3c-1.3-0.3-1.1-1.1-0.7-1.8q-0.2 0.2-0.4 0.3q-0.3 0.2-0.5 0.3q-0.2 0.1-0.5 0.2q-0.2 0-0.5 0.1q-0.5 0.1-1 0.1q-0.5-0.1-1-0.3q-0.4-0.3-0.7-0.7q-0.4-0.4-0.5-0.8q-0.1-0.5 0-1q0.1-0.5 0.3-0.9q0.2-0.4 0.6-0.8q0.3-0.3 0.7-0.5q0.3-0.1 0.5-0.2q0.2 0 0.4-0.1q0.2 0 0.5 0q0.2 0 0.4 0q0.2-0.3 0.4-0.5q0.2-0.2 0.4-0.4q0.2-0.3 0.5-0.4q0.2-0.2 0.5-0.4q0.8-0.4 1.5-0.7q0.8-0.2 1.7-0.4q0.8-0.1 1.6-0.1q0.9 0 1.7 0.2q-0.1-0.1-0.1-0.3q-0.1-0.2-0.1-0.4q0-0.2 0-0.4q0.1-0.2 0.1-0.4q0.1 0 0.1-0.1q0.1-0.1 0.2-0.1q0 0 0.1 0q0.1 0 0.2 0.1q0.1 0.1 0.3 0.3q0.1 0.2 0.2 0.3q0.2 0.2 0.3 0.4q0.1 0.2 0.2 0.4q0.1-0.2 0.3-0.3q0.1-0.2 0.3-0.3q0.2 0 0.4-0.1q0.2-0.1 0.4-0.1q0.1 0 0.2 0.1q0.1 0 0.1 0.1q0 0.1 0 0.2q0 0 0 0.1q-0.1 0.2-0.2 0.4q-0.1 0.1-0.2 0.3q-0.2 0.2-0.3 0.3q-0.1 0.1-0.3 0.3l0.5 0.2c2.1 1.3 3.8 2.5 4.1 4.9q0.1 0.8 0.1 1.7zm-6.4-8.1q0 0.1 0 0.1q0 0.1 0.1 0.2q0 0 0.1 0.1c-0.1-0.1-0.2-0.2-0.2-0.3q0 0 0 0q0 0 0-0.1q0 0 0 0q0 0 0 0l-0.1-0.1q0 0 0.1 0.1z" />
	<path id="Layer" class="s0" d="m268.8 102l28.7 16.7q0.2 0.1 0.3 0.3q0.2 0.2 0.3 0.4q0.1 0.2 0.2 0.4q0 0.2 0 0.5q0 0.4-0.2 0.8q-0.2 0.4-0.7 0.7q-0.4 0.2-0.8 0.2q-0.5 0-0.9-0.2l-28.7-16.7q-0.2-0.1-0.4-0.2q-0.1-0.2-0.2-0.4q-0.2-0.2-0.2-0.4q-0.1-0.2-0.1-0.5v-0.1q0-0.5 0.3-0.9q0.2-0.4 0.6-0.6q0.4-0.2 0.9-0.2q0.5 0 0.9 0.2z" />
	<path id="Layer" class="s0" d="m268.8 111l28.7 16.7q0.2 0.1 0.3 0.3q0.2 0.2 0.3 0.4q0.1 0.2 0.2 0.4q0 0.2 0 0.5q0 0.4-0.2 0.8q-0.2 0.4-0.7 0.7q-0.4 0.2-0.8 0.2q-0.5 0-0.9-0.2l-28.7-16.6q-0.2-0.1-0.4-0.3q-0.1-0.2-0.2-0.4q-0.2-0.2-0.2-0.4q-0.1-0.2-0.1-0.4v-0.1q0-0.5 0.2-0.9q0.3-0.4 0.7-0.7q0.4-0.2 0.9-0.2q0.5 0 0.9 0.2z" />
	<path id="Layer" class="s0" d="m268.8 120.1l28.7 16.7q0.2 0.1 0.3 0.3q0.2 0.2 0.3 0.4q0.1 0.2 0.2 0.4q0 0.2 0 0.4q0 0.5-0.2 0.9q-0.2 0.4-0.7 0.7q-0.4 0.2-0.8 0.2q-0.5 0-0.9-0.2l-28.7-16.7q-0.2-0.1-0.4-0.2q-0.1-0.2-0.2-0.4q-0.2-0.2-0.2-0.4q-0.1-0.3-0.1-0.5v-0.1q0-0.5 0.3-0.9q0.2-0.4 0.6-0.6q0.4-0.3 0.9-0.3q0.5 0.1 0.9 0.3z" />
	<path id="Layer" class="s0" d="m268.8 129.1l28.7 16.8q0.2 0.1 0.3 0.2q0.2 0.2 0.3 0.4q0.1 0.2 0.2 0.4q0 0.2 0 0.5q0 0.5-0.2 0.9q-0.2 0.4-0.7 0.6q-0.4 0.2-0.8 0.2q-0.5 0-0.9-0.2l-28.7-16.6q-0.2-0.1-0.4-0.3q-0.1-0.2-0.2-0.4q-0.2-0.2-0.2-0.4q-0.1-0.2-0.1-0.4v-0.1q0-0.5 0.3-0.9q0.2-0.4 0.6-0.7q0.4-0.2 0.9-0.2q0.5 0 0.9 0.2z" />
	<path id="Layer" class="s0" d="m196.8 70.7l-0.1 29l-22.4-12.9v-28.7l22.4 12.6z" />
	<path id="Layer" class="s0" d="m176.9 86.8l5.7 2.2l-5.7 4.9v-7.1z" />
	<path id="Layer" class="s10" d="m183.1 73.7c0.8-0.5 1.5 0.7 0.7 1.2l-5 3l0.3-0.9l3.9 5.3c0.5 0.7-0.6 1.4-1.2 0.7l-3.9-5.3q0-0.2 0-0.3q-0.1-0.1 0-0.3q0-0.1 0.1-0.2q0.1-0.1 0.2-0.2l5-3z" />
	<path id="Layer" class="s10" d="m186.6 76.4c-0.5-0.7 0.6-1.4 1.1-0.7l4.2 5.9q0 0.1 0.1 0.2q0 0.2 0 0.3q-0.1 0.1-0.2 0.2q0 0.1-0.2 0.2l-5 2.5c-0.8 0.4-1.5-0.7-0.7-1.1l5.1-2.6l-0.3 1l-4.1-5.9z" />
	<path id="Layer" class="s0" d="m297.4 108.7c-0.9 0-1.6-0.8-1.6-1.8c0-0.9 0.7-1.7 1.6-1.7c0.9 0 1.6 0.8 1.6 1.7c0 1-0.7 1.8-1.6 1.8z" />
	<path id="Layer" class="s0" d="m292.2 106c-0.9 0-1.6-0.7-1.6-1.7c0-1 0.7-1.8 1.6-1.8c0.9 0 1.6 0.8 1.6 1.8c0 1-0.7 1.7-1.6 1.7z" />
	<path id="Layer" class="s0" d="m287.1 103.5c-0.9 0-1.6-0.8-1.6-1.8c0-0.9 0.7-1.7 1.6-1.7c0.9 0 1.6 0.8 1.6 1.8c0 0.9-0.7 1.7-1.6 1.7z" />
	<path id="Layer" class="s18" d="m175.5 137.8l-12.8 6.6l-35.2-20" />
	<path id="Layer" class="s18" d="m162.6 144.7v8" />
	<path id="Layer" class="s11" d="m140.4 139.1c-0.3 0.4-4.1 1.7-5.5 1.4c-1.4-0.2-4.1-3.9-4.2-4.5q0.1-0.7 0.2-1.4q0.2-0.6 0.3-1.3q0.2-0.7 0.3-1.4q0.2-0.7 0.4-1.3l2.9 0.2q-0.1 0.3-0.1 0.5q0 0.2 0 0.4q0 0.2 0 0.4q0 0.2 0.1 0.4q0 0.1 0 0.1q0 0.1 0 0.1q0 0 0 0q0.1 0.1 0.1 0.1q0 1.1 0 2.1q-0.1 0.3 0 0.5q0 0.3 0 0.6q0.1 0.3 0.2 0.5q0.1 0.3 0.2 0.6q0.2 0.1 0.4 0.3q0.3 0.1 0.5 0.3q0.3 0.1 0.6 0.2q0.2 0 0.5 0.1c1 0.4 2.1 0.7 3.1 1.1z" />
	<path id="Layer" class="s11" d="m157.9 129.1q-0.3 0.3-0.7 0.6q-0.3 0.3-0.7 0.5q-0.4 0.3-0.8 0.5q-0.4 0.2-0.8 0.4c-0.8-0.1-1.5-0.3-2.2-0.4q-0.3-0.1-0.6-0.2q-0.3 0-0.6-0.1q-0.3 0-0.6 0q-0.2 0-0.5 0.1c-0.4 0.1-0.5 0.3-0.5 0.7q0 0.3 0.1 0.5q0 0.3 0 0.6q0 0.3 0.1 0.6q0 0.2 0.1 0.5q-0.1 0.1-0.2 0.1q-0.1 0.1-0.2 0.1q-0.1 0-0.2 0.1q-0.1 0-0.2 0.1c-0.4 0-2.2-0.4-2.2-1.9c0-0.8 0.5-6.7 0.5-6.7l4.1-0.3c-0.1 0.2 0 3.5 0.4 3.4q0.6-0.1 1.2-0.2q0.6-0.1 1.2-0.1q0.7-0.1 1.3-0.1q0.6-0.1 1.2-0.1c1.4 0.3 1.1 0.5 0.8 1.3z" />
	<path id="Layer" class="s9" d="m154.1 131.5c-1.1 0.3-3.4-0.7-3.4-0.7l0.2 2.7c0 0-1.1 0.7-1.4 0.9c-0.4 0.2-2-0.7-2.2-1q-0.1-0.4-0.1-0.8q0-0.4 0-0.8q0-0.4 0-0.8q0-0.4 0.1-0.8l0.2-2.2l2.7 1.2c1.5 0.6 4 2.1 5.5 0.8q0.1-0.2 0.2-0.4q0.1-0.1 0.2-0.3q0-0.2 0-0.4q0-0.3 0-0.5c-0.2-0.6-4.2 0-3.9-0.1q0.6-0.2 1.2-0.3q0.5-0.1 1.1-0.1q0.6-0.1 1.2-0.2q0.5 0 1.1 0c0.4 0 1.2 0 1.5 0.3l0.1 0.1c1 1.3-3.5 3.2-4.3 3.4z" />
	<path id="Layer" class="s9" d="m134.8 138.9l1.6 1.8c-0.9 1.2-2.8-0.3-3-0.5q-0.1-0.2-0.2-0.4q-0.1-0.2-0.2-0.4q0-0.2-0.1-0.5q0-0.2-0.1-0.4q-0.1 0.3-0.3 0.6q-0.2 0.3-0.4 0.6q-0.2 0.3-0.4 0.6q-0.2 0.3-0.4 0.6c-0.2 0-0.7-1.3-0.7-1.3l-1.6-0.7l1.9-4.3l2.3 0.8c0 0 2.5 4.1 2.7 4.3q0.3 0 0.6-0.1q0.4-0.1 0.7-0.2q0.3-0.2 0.6-0.4q0.2-0.2 0.5-0.4c0-0.3-1.8-0.9-1.8-0.9c0.3 0.1 3.7 0.1 4.3 0.8c0.8 1.1-5 2.9-5.5 2.6c-0.5-0.3-2-5-2-5" />
	<path id="Layer" class="s9" d="m130.2 138.5l1.1 0.4v2l-2-0.9l-0.3-1.1" />
	<path id="Layer" class="s12" d="m145.7 103.1c-0.6-2.2-3.9-6.1-3.9-6.1l-1.9 37c-4.9 2-11.3-2.1-11.3-2.1c0 0 1-44.3 6.1-54l12.6 1.9c6.9 7.7 8.3 17.3 8.6 27.1c0.2 6.1-0.4 11.5-0.4 17.5q-1.1 0.9-2.3 1.5q-1.2 0.6-2.5 0.9q-1.3 0.3-2.7 0.3q-1.4 0-2.7-0.3c-0.1-7.4 0.8-22 0.4-23.7z" />
	<path id="Layer" class="s6" d="m92.2 113.8c-12.3 0-22.2-4.9-22.2-10.9c0-6.1 9.9-11 22.2-11c12.2 0 22.1 4.9 22.1 11c0 6-9.9 10.9-22.1 10.9z" />
	<path id="Layer" class="s19" d="m92.2 113.8c-12.3 0-22.2-4.9-22.2-10.9c0-6.1 9.9-11 22.2-11c12.2 0 22.1 4.9 22.1 11c0 6-9.9 10.9-22.1 10.9z" />
	<path id="Layer" class="s20" d="m348 223.3l-20.9 11.2c-13.7-5.8-19.2-15.5-19.2-15.5l17.9-10.6" />
	<path id="Layer" class="s2" d="m340.7 224.1c-9.2 0-16.6-5.2-16.6-11.7c0-6.5 7.4-11.7 16.6-11.7c9.2 0 16.6 5.2 16.6 11.7c0 6.5-7.4 11.7-16.6 11.7z" />
	<path id="Layer" class="s21" d="m340.7 210.6c-6.9 0-12.4-2.3-12.4-5.1c0-2.8 5.5-5.1 12.4-5.1c6.9 0 12.5 2.3 12.5 5.1c0 2.8-5.6 5.1-12.5 5.1z" />
	<path id="Layer" fill-rule="evenodd" class="s22" d="m339.9 205.6c-1-1.4-2-2.8-3-4.4q-2-3.1-3.7-6.4q-0.4-0.7-0.8-1.4q-0.3-0.8-0.7-1.5q-0.3-0.8-0.6-1.5q-0.3-0.8-0.6-1.6q-0.3-0.8-0.6-1.7q-0.3-0.8-0.5-1.7q-0.3-0.8-0.5-1.7q-0.2-0.9-0.4-1.8q-0.2-0.9-0.3-1.8c-0.1-0.3-0.1-0.2-0.1-0.2c0-0.1 0-0.2 0-0.6c-0.1-1.2-0.2-2.5-0.2-3.7q0-1.7 0.1-3.3q0.2-1.6 0.5-3.2q0.3-1.6 0.8-3.2q0.5-1.6 1.1-3.1q1.7 2.5 3.1 5.1q1.4 2.6 2.5 5.3q1.1 2.8 2 5.6q0.8 2.9 1.3 5.8q0.1 0.7 0.2 1.4c0-0.1 0.1 0.8 0.2 1.2l0.1 1.1q0.1 0.9 0.2 1.8q0.3 3.4 0.3 6.9c0 2.9-0.2 5.8-0.4 8.6zm-6-34.4q0.1 0 0.2 0q0.2 0 0.3 0q0.1 0 0.2 0.1q-0.5-0.5-1-1q0.1 0.1 0.1 0.2q0 0.1 0 0.2q0 0.1 0 0.2q0 0.1 0 0.3q0.1-0.1 0.2 0z" />
	<path id="Layer" fill-rule="evenodd" class="s22" d="m339.5 205.8c-0.1-1.7-0.1-3.4-0.1-5.3q0-3.7 0.3-7.4q0.1-0.8 0.2-1.6q0.1-0.8 0.2-1.6q0.1-0.8 0.3-1.7q0.2-0.8 0.3-1.6q0.2-0.8 0.5-1.7q0.2-0.9 0.5-1.7q0.2-0.9 0.5-1.8q0.3-0.8 0.6-1.6q0.3-0.9 0.7-1.8c0.1-0.3 0.1-0.2 0.1-0.2l0.2-0.5q0.9-1.6 1.9-3.2q0.9-1.4 1.9-2.7q1-1.3 2.1-2.5q1.2-1.2 2.4-2.2q1.3-1.1 2.6-2q0.1 2.9-0.1 5.9q-0.2 2.9-0.8 5.9q-0.5 2.9-1.4 5.7q-0.8 2.8-2 5.6q-0.2 0.6-0.5 1.3l-0.5 1.1l-0.5 1q-0.4 0.8-0.8 1.6q-1.7 3.1-3.6 6q-2.3 3.6-5 7zm13.7-32.2q0.1 0.1 0.2 0.1q0 0.1 0.1 0.2q0.1 0.1 0.2 0.2q-0.1-0.7-0.3-1.4q0 0.1 0 0.2q-0.1 0.1-0.1 0.2q-0.1 0.1-0.2 0.2q0 0.1-0.1 0.2q0.1 0 0.2 0.1z" />
	<path id="Layer" fill-rule="evenodd" class="s22" d="m339.5 206.7c0.5-1 1.1-2 1.7-3q1.2-1.9 2.5-3.8q0.3-0.4 0.6-0.8q0.4-0.4 0.7-0.8q0.3-0.4 0.7-0.8q0.3-0.4 0.7-0.8q0.4-0.4 0.8-0.8q0.4-0.4 0.8-0.7q0.4-0.4 0.8-0.8q0.5-0.3 0.9-0.7q0.5-0.4 1-0.7c0.1-0.1 0.1-0.1 0.1-0.1l0.3-0.2q1-0.6 2-1.1q0.9-0.5 1.9-0.9q0.9-0.3 1.9-0.6q1-0.3 2-0.5q1.1-0.1 2.1-0.2q-0.9 1.6-2 3.1q-1.1 1.6-2.3 3q-1.2 1.4-2.6 2.6q-1.4 1.3-2.9 2.4l-0.7 0.5l-0.6 0.4l-0.6 0.4l-1 0.6q-1.9 1.1-3.9 2.1c-1.6 0.8-3.2 1.5-4.9 2.2zm17.7-13q0.1 0.1 0.1 0.1q0 0.1 0 0.2q0.1 0.1 0.1 0.1q0.1-0.4 0.3-0.8q-0.1 0.1-0.1 0.1q-0.1 0-0.2 0.1q0 0-0.1 0q-0.1 0.1-0.1 0.1q0 0.1 0 0.1z" />
	<path id="Layer" fill-rule="evenodd" class="s22" d="m339.9 205.6c-1-1.4-2-2.8-3-4.4q-2-3.1-3.7-6.4q-0.4-0.7-0.8-1.4q-0.3-0.8-0.7-1.5q-0.3-0.8-0.6-1.5q-0.3-0.8-0.6-1.6q-0.3-0.8-0.6-1.7q-0.3-0.8-0.5-1.7q-0.3-0.8-0.5-1.7q-0.2-0.9-0.4-1.8q-0.2-0.9-0.3-1.8c-0.1-0.3-0.1-0.2-0.1-0.2c0-0.1 0-0.2 0-0.6c-0.1-1.2-0.2-2.5-0.2-3.7q0-1.7 0.1-3.3q0.2-1.6 0.5-3.2q0.3-1.6 0.8-3.2q0.5-1.6 1.1-3.1q1.7 2.5 3.1 5.1q1.4 2.6 2.5 5.3q1.1 2.8 2 5.6q0.8 2.9 1.3 5.8q0.1 0.7 0.2 1.4c0-0.1 0.1 0.8 0.2 1.2l0.1 1.1q0.1 0.9 0.2 1.8q0.3 3.4 0.3 6.9c0 2.9-0.2 5.8-0.4 8.6zm-6-34.4q0.1 0 0.2 0q0.2 0 0.3 0q0.1 0 0.2 0.1q-0.5-0.5-1-1q0.1 0.1 0.1 0.2q0 0.1 0 0.2q0 0.1 0 0.2q0 0.1 0 0.3q0.1-0.1 0.2 0z" />
	<path id="Layer" fill-rule="evenodd" class="s22" d="m339.5 205.8c-0.1-1.7-0.1-3.4-0.1-5.3q0-3.7 0.3-7.4q0.1-0.8 0.2-1.6q0.1-0.8 0.2-1.6q0.1-0.8 0.3-1.7q0.2-0.8 0.3-1.6q0.2-0.8 0.5-1.7q0.2-0.9 0.5-1.7q0.2-0.9 0.5-1.8q0.3-0.8 0.6-1.6q0.3-0.9 0.7-1.8c0.1-0.3 0.1-0.2 0.1-0.2l0.2-0.5q0.9-1.6 1.9-3.2q0.9-1.4 1.9-2.7q1-1.3 2.1-2.5q1.2-1.2 2.4-2.2q1.3-1.1 2.6-2q0.1 2.9-0.1 5.9q-0.2 2.9-0.8 5.9q-0.5 2.9-1.4 5.7q-0.8 2.8-2 5.6q-0.2 0.6-0.5 1.3l-0.5 1.1l-0.5 1q-0.4 0.8-0.8 1.6q-1.7 3.1-3.6 6q-2.3 3.6-5 7zm13.7-32.2q0.1 0.1 0.2 0.1q0 0.1 0.1 0.2q0.1 0.1 0.2 0.2q-0.1-0.7-0.3-1.4q0 0.1 0 0.2q-0.1 0.1-0.1 0.2q-0.1 0.1-0.2 0.2q0 0.1-0.1 0.2q0.1 0 0.2 0.1z" />
	<path id="Layer" fill-rule="evenodd" class="s22" d="m339.5 206.7c0.5-1 1.1-2 1.7-3q1.2-1.9 2.5-3.8q0.3-0.4 0.6-0.8q0.4-0.4 0.7-0.8q0.3-0.4 0.7-0.8q0.3-0.4 0.7-0.8q0.4-0.4 0.8-0.8q0.4-0.4 0.8-0.7q0.4-0.4 0.8-0.8q0.5-0.3 0.9-0.7q0.5-0.4 1-0.7c0.1-0.1 0.1-0.1 0.1-0.1l0.3-0.2q1-0.6 2-1.1q0.9-0.5 1.9-0.9q0.9-0.3 1.9-0.6q1-0.3 2-0.5q1.1-0.1 2.1-0.2q-0.9 1.6-2 3.1q-1.1 1.6-2.3 3q-1.2 1.4-2.6 2.6q-1.4 1.3-2.9 2.4l-0.7 0.5l-0.6 0.4l-0.6 0.4l-1 0.6q-1.9 1.1-3.9 2.1c-1.6 0.8-3.2 1.5-4.9 2.2zm17.7-13q0.1 0.1 0.1 0.1q0 0.1 0 0.2q0.1 0.1 0.1 0.1q0.1-0.4 0.3-0.8q-0.1 0.1-0.1 0.1q-0.1 0-0.2 0.1q0 0-0.1 0q-0.1 0.1-0.1 0.1q0 0.1 0 0.1z" />
</svg>